<svg width="20" height="20" viewBox="0 0 20 20" fill="none" xmlns="http://www.w3.org/2000/svg">
<path d="M19.7859 10.2247C19.7859 9.56634 19.7276 8.94134 19.6276 8.33301H10.2109V12.0913H15.6026C15.3609 13.3247 14.6526 14.3663 13.6026 15.0747V17.5747H16.8193C18.7026 15.833 19.7859 13.2663 19.7859 10.2247Z" fill="#4285F4"/>
<path d="M10.2102 19.9999C12.9102 19.9999 15.1685 19.0999 16.8185 17.5749L13.6018 15.0749C12.7018 15.6749 11.5602 16.0415 10.2102 16.0415C7.60182 16.0415 5.39349 14.2832 4.60182 11.9082H1.28516V14.4832C2.92682 17.7499 6.30182 19.9999 10.2102 19.9999Z" fill="#34A853"/>
<path d="M4.6026 11.9083C4.39427 11.3083 4.28594 10.6666 4.28594 9.99993C4.28594 9.33327 4.4026 8.6916 4.6026 8.0916V5.5166H1.28594C0.602603 6.8666 0.210938 8.38327 0.210938 9.99993C0.210938 11.6166 0.602603 13.1333 1.28594 14.4833L4.6026 11.9083Z" fill="#FBBC05"/>
<path d="M10.2102 3.95833C11.6852 3.95833 13.0018 4.46667 14.0435 5.45834L16.8935 2.60833C15.1685 0.991668 12.9102 0 10.2102 0C6.30182 0 2.92682 2.25 1.28516 5.51667L4.60182 8.09167C5.39349 5.71667 7.60182 3.95833 10.2102 3.95833Z" fill="#EA4335"/>
</svg>
